<?xml version="1.0" encoding="iso-8859-1"?>
<!-- Generator: Adobe Illustrator 16.0.0, SVG Export Plug-In . SVG Version: 6.00 Build 0)  -->
<!DOCTYPE svg PUBLIC "-//W3C//DTD SVG 1.1//EN" "http://www.w3.org/Graphics/SVG/1.1/DTD/svg11.dtd">
<svg version="1.1" id="Capa_1" xmlns="http://www.w3.org/2000/svg" xmlns:xlink="http://www.w3.org/1999/xlink" x="0px" y="0px"
	 width="192.922px" height="192.922px" viewBox="0 0 192.922 192.922" style="enable-background:new 0 0 192.922 192.922;"
	 xml:space="preserve">
<g>
	<path d="M190.855,124.768c-13.729-7.213-27.341-9.727-42.457-6.298c-8.749-35.575-17.59-69.916-48.909-92.693
		C77.731,9.953,40.535-6.53,16.755,15.159c-26.876,24.513-18.036,63.74,2.782,89.458c27.243,33.655,62.833,35.272,102.58,39.979
		c-6.237,13.719-5.654,28.92,3.554,41.504c1.535,2.098,3.593,2.581,5.955,1.561c15.738-6.792,23.186-21.15,23.34-37.42
		c15.144,0.155,30.151-5.426,37.423-19.627C193.412,128.616,193,125.895,190.855,124.768z M24.302,18.579
		c14.567-10.894,33.568-7.157,50.25,0.98c-0.286,0.512-0.499,1.098-0.536,1.832c-1.526,30.52-27.325,54.498-57.392,56.781
		c-1.298,0.099-2.046,0.949-2.29,1.916C4.228,58.877,3.24,34.331,24.302,18.579z M150.459,141.281
		c-2.263-0.198-4.545,2.147-4.383,4.383c1.007,13.944-3.366,25.76-15.147,32.584c-6.424-10.966-6.351-23.428-3.498-35.903
		c0.279-1.223-0.625-2.174-1.626-2.351c-0.332-0.432-0.749-0.805-1.331-0.989c-30.718-9.79-61.408-6.777-87.434-29.052
		c-8.157-6.981-15.781-16.493-21.264-26.98c0.258,0.089,0.524,0.17,0.848,0.175c32.539,0.528,67.025-25.189,65.096-59.76
		c7.13,4.14,13.592,8.866,18.771,13.249c25.9,21.917,32.562,53.989,40.25,85.271c0.572,2.326,2.497,3.151,4.328,2.896
		c0.847,1.478,2.469,2.499,4.598,1.981c11.843-2.876,22.263-1.434,32.87,3.402C175.15,139.979,162.594,142.346,150.459,141.281z"/>
	<path d="M50.178,29.573c0.196-1.502-0.22-3.077-1.39-4.13c-1.058-1.175-2.195-2.239-3.351-3.319c-0.905-0.846-2.044-1.31-3.2-1.399
		c-0.017-0.015-0.034-0.028-0.051-0.043c-3.658-3.095-8.334,1.582-5.239,5.239c0.014,0.017,0.028,0.034,0.043,0.051
		c0.089,1.156,0.553,2.295,1.399,3.2c1.08,1.155,2.144,2.293,3.319,3.349c1.053,1.171,2.628,1.586,4.13,1.39
		c1.065-0.107,2.102-0.542,2.951-1.39C49.637,31.673,50.071,30.638,50.178,29.573z"/>
</g>
<g>
</g>
<g>
</g>
<g>
</g>
<g>
</g>
<g>
</g>
<g>
</g>
<g>
</g>
<g>
</g>
<g>
</g>
<g>
</g>
<g>
</g>
<g>
</g>
<g>
</g>
<g>
</g>
<g>
</g>
</svg>
